<svg xmlns="http://www.w3.org/2000/svg" xmlns:xlink="http://www.w3.org/1999/xlink" width="31" zoomAndPan="magnify" viewBox="0 0 23.25 21.749999" height="29" preserveAspectRatio="xMidYMid meet" version="1.0"><defs><clipPath id="f279c6390e"><path d="M 0 0.21875 L 22.523438 0.21875 L 22.523438 21.289062 L 0 21.289062 Z M 0 0.21875 " clip-rule="nonzero"/></clipPath><clipPath id="53ae2c69d1"><path d="M 0 0.21875 L 21.976562 0.21875 L 21.976562 20.871094 L 0 20.871094 Z M 0 0.21875 " clip-rule="nonzero"/></clipPath><clipPath id="5d5ead3994"><path d="M 0 0.222656 L 21.796875 0.222656 L 21.796875 20.5625 L 0 20.5625 Z M 0 0.222656 " clip-rule="nonzero"/></clipPath><clipPath id="17e51ea69f"><path d="M 4.488281 5.535156 L 17.566406 5.535156 L 17.566406 15.707031 L 4.488281 15.707031 Z M 4.488281 5.535156 " clip-rule="nonzero"/></clipPath></defs><g clip-path="url(#f279c6390e)"><path fill="#ffffff" d="M 0 0.21875 L 22.523438 0.21875 L 22.523438 21.289062 L 0 21.289062 Z M 0 0.21875 " fill-opacity="1" fill-rule="nonzero"/></g><g clip-path="url(#53ae2c69d1)"><path fill="#ffffff" d="M 0 0.21875 L 21.945312 0.21875 L 21.945312 20.871094 L 0 20.871094 Z M 0 0.21875 " fill-opacity="1" fill-rule="nonzero"/></g><g clip-path="url(#5d5ead3994)"><path stroke-linecap="butt" transform="matrix(0.726562, 0, 0, 0.726562, 0.000000000000051625, 0.22197)" fill="none" stroke-linejoin="miter" d="M -0.000000000000071054 0.000944797 L 30.23656 0.000944797 L 30.23656 28.414924 L -0.000000000000071054 28.414924 Z M -0.000000000000071054 0.000944797 " stroke="#c0c0c0" stroke-width="2" stroke-opacity="1" stroke-miterlimit="4"/></g><g clip-path="url(#17e51ea69f)"><path fill="#c0c0c0" d="M 8.621094 13.398438 L 5.546875 10.320312 L 4.5 11.363281 L 8.621094 15.484375 L 17.476562 6.632812 L 16.433594 5.585938 Z M 8.621094 13.398438 " fill-opacity="1" fill-rule="nonzero"/></g></svg>