<svg xmlns="http://www.w3.org/2000/svg" xmlns:xlink="http://www.w3.org/1999/xlink" width="33" zoomAndPan="magnify" viewBox="0 0 24.75 23.999999" height="32" preserveAspectRatio="xMidYMid meet" version="1.0"><defs><clipPath id="6f5eb5c5c6"><path d="M 0 0.121094 L 24.496094 0.121094 L 24.496094 23.140625 L 0 23.140625 Z M 0 0.121094 " clip-rule="nonzero"/></clipPath><clipPath id="cee6e9a5b7"><path d="M 0 0.121094 L 24.324219 0.121094 L 24.324219 23.132812 L 0 23.132812 Z M 0 0.121094 " clip-rule="nonzero"/></clipPath><clipPath id="60a6006de4"><path d="M 3.691406 2.769531 L 20.71875 2.769531 L 20.71875 20.402344 L 3.691406 20.402344 Z M 3.691406 2.769531 " clip-rule="nonzero"/></clipPath></defs><g clip-path="url(#6f5eb5c5c6)"><path fill="#ffffff" d="M 0 0.121094 L 24.460938 0.121094 L 24.460938 23.140625 L 0 23.140625 Z M 0 0.121094 " fill-opacity="1" fill-rule="nonzero"/></g><g clip-path="url(#cee6e9a5b7)"><path stroke-linecap="butt" transform="matrix(0.608148, 0, 0, 0.608148, -0.000000000000002161, 0.121151)" fill="none" stroke-linejoin="miter" d="M 0.000000000000003553 -0.0000945844 L 40.266966 -0.0000945844 L 40.266966 37.838907 L 0.000000000000003553 37.838907 Z M 0.000000000000003553 -0.0000945844 " stroke="#c0c0c0" stroke-width="2.441839" stroke-opacity="1" stroke-miterlimit="4"/></g><g clip-path="url(#60a6006de4)"><path fill="#c0c0c0" d="M 3.738281 3.074219 L 3.738281 20.183594 C 3.738281 20.269531 3.765625 20.339844 3.828125 20.398438 C 3.886719 20.460938 3.957031 20.488281 4.042969 20.488281 L 17.488281 20.488281 C 17.570312 20.488281 17.644531 20.460938 17.703125 20.398438 C 17.761719 20.339844 17.792969 20.269531 17.792969 20.183594 L 17.792969 15.070312 L 20.035156 11.628906 L 20.390625 11.089844 C 20.480469 10.949219 20.542969 10.796875 20.570312 10.632812 C 20.601562 10.472656 20.601562 10.308594 20.566406 10.144531 C 20.53125 9.984375 20.46875 9.832031 20.375 9.695312 C 20.28125 9.558594 20.164062 9.445312 20.027344 9.351562 L 19.960938 9.308594 C 19.820312 9.21875 19.667969 9.15625 19.503906 9.125 C 19.34375 9.097656 19.179688 9.097656 19.015625 9.132812 C 18.851562 9.164062 18.703125 9.230469 18.566406 9.324219 C 18.429688 9.417969 18.316406 9.535156 18.222656 9.671875 L 17.945312 10.101562 L 17.785156 10.34375 L 17.785156 5.28125 C 17.785156 5.199219 17.757812 5.128906 17.703125 5.070312 L 15.492188 2.855469 C 15.433594 2.796875 15.367188 2.769531 15.285156 2.769531 L 4.035156 2.769531 C 3.953125 2.769531 3.882812 2.800781 3.824219 2.859375 C 3.765625 2.921875 3.738281 2.992188 3.738281 3.074219 Z M 16.265625 16.332031 L 15.089844 15.5625 L 18.277344 10.667969 L 19.453125 11.4375 Z M 14.917969 16.152344 L 15.765625 16.707031 L 14.820312 17.226562 Z M 19.636719 9.796875 L 19.707031 9.839844 C 19.859375 9.9375 19.953125 10.078125 19.992188 10.257812 C 20.03125 10.4375 20 10.601562 19.898438 10.753906 L 19.777344 10.941406 L 18.597656 10.175781 L 18.722656 9.984375 C 18.824219 9.832031 18.960938 9.738281 19.140625 9.699219 C 19.320312 9.664062 19.484375 9.695312 19.636719 9.796875 Z M 16.886719 5.09375 L 15.476562 5.09375 L 15.476562 3.683594 Z M 4.332031 3.359375 L 14.882812 3.359375 L 14.882812 5.394531 C 14.882812 5.476562 14.914062 5.550781 14.972656 5.609375 C 15.03125 5.667969 15.105469 5.699219 15.191406 5.699219 L 17.203125 5.699219 L 17.203125 11.246094 L 14.429688 15.476562 C 14.417969 15.492188 14.414062 15.507812 14.40625 15.527344 C 14.398438 15.546875 14.394531 15.566406 14.390625 15.585938 L 14.195312 17.738281 C 14.183594 17.855469 14.226562 17.949219 14.324219 18.015625 C 14.425781 18.074219 14.527344 18.074219 14.628906 18.015625 L 16.484375 16.996094 C 16.515625 16.980469 16.539062 16.957031 16.5625 16.929688 L 16.578125 16.910156 L 17.1875 15.996094 L 17.1875 19.898438 L 4.332031 19.898438 Z M 4.332031 3.359375 " fill-opacity="1" fill-rule="nonzero"/></g><path fill="#c0c0c0" d="M 6.238281 7.160156 L 15.402344 7.191406 C 15.5 7.214844 15.585938 7.199219 15.664062 7.136719 C 15.742188 7.074219 15.785156 6.996094 15.785156 6.894531 C 15.785156 6.796875 15.742188 6.714844 15.664062 6.65625 C 15.585938 6.59375 15.5 6.574219 15.402344 6.597656 L 6.238281 6.570312 C 6.140625 6.546875 6.050781 6.5625 5.972656 6.625 C 5.890625 6.683594 5.851562 6.765625 5.851562 6.867188 C 5.851562 6.96875 5.890625 7.046875 5.972656 7.109375 C 6.050781 7.171875 6.140625 7.1875 6.238281 7.160156 Z M 6.238281 7.160156 " fill-opacity="1" fill-rule="nonzero"/><path fill="#c0c0c0" d="M 6.238281 9.964844 L 15.402344 9.996094 C 15.488281 9.996094 15.558594 9.964844 15.621094 9.90625 C 15.679688 9.84375 15.710938 9.773438 15.710938 9.6875 C 15.710938 9.605469 15.679688 9.53125 15.621094 9.472656 C 15.558594 9.414062 15.488281 9.382812 15.402344 9.382812 L 6.238281 9.351562 C 6.140625 9.324219 6.050781 9.34375 5.972656 9.40625 C 5.890625 9.464844 5.851562 9.546875 5.851562 9.648438 C 5.851562 9.75 5.890625 9.828125 5.972656 9.890625 C 6.050781 9.953125 6.140625 9.96875 6.238281 9.941406 Z M 6.238281 9.964844 " fill-opacity="1" fill-rule="nonzero"/><path fill="#c0c0c0" d="M 13.515625 12.207031 L 6.238281 12.175781 C 6.140625 12.152344 6.054688 12.171875 5.976562 12.230469 C 5.894531 12.292969 5.855469 12.371094 5.855469 12.472656 C 5.855469 12.570312 5.894531 12.652344 5.976562 12.714844 C 6.054688 12.773438 6.140625 12.792969 6.238281 12.769531 L 13.515625 12.796875 C 13.613281 12.824219 13.699219 12.804688 13.78125 12.742188 C 13.859375 12.683594 13.902344 12.601562 13.902344 12.5 C 13.902344 12.402344 13.859375 12.320312 13.78125 12.257812 C 13.699219 12.199219 13.613281 12.179688 13.515625 12.207031 Z M 13.515625 12.207031 " fill-opacity="1" fill-rule="nonzero"/><path fill="#c0c0c0" d="M 12.539062 16.519531 L 6.363281 16.476562 C 6.210938 16.519531 6.136719 16.617188 6.136719 16.773438 C 6.136719 16.929688 6.210938 17.027344 6.363281 17.066406 L 12.546875 17.097656 C 12.644531 17.121094 12.730469 17.105469 12.808594 17.042969 C 12.886719 16.980469 12.925781 16.902344 12.925781 16.800781 C 12.925781 16.703125 12.886719 16.621094 12.808594 16.5625 C 12.730469 16.5 12.644531 16.480469 12.546875 16.503906 Z M 12.539062 16.519531 " fill-opacity="1" fill-rule="nonzero"/></svg>