<svg xmlns="http://www.w3.org/2000/svg" xmlns:xlink="http://www.w3.org/1999/xlink" width="41" zoomAndPan="magnify" viewBox="0 0 30.75 28.499999" height="38" preserveAspectRatio="xMidYMid meet" version="1.0"><defs><clipPath id="27f86a21f4"><path d="M 0.140625 0 L 30.363281 0 L 30.363281 28.007812 L 0.140625 28.007812 Z M 0.140625 0 " clip-rule="nonzero"/></clipPath><clipPath id="601d5495f7"><path d="M 0.140625 0 L 29.832031 0 L 29.832031 27.902344 L 0.140625 27.902344 Z M 0.140625 0 " clip-rule="nonzero"/></clipPath><clipPath id="268cd28070"><path d="M 0.140625 0 L 29.625 0 L 29.625 27.890625 L 0.140625 27.890625 Z M 0.140625 0 " clip-rule="nonzero"/></clipPath><clipPath id="54c5fc7f33"><path d="M 8 5.261719 L 24 5.261719 L 24 21 L 8 21 Z M 8 5.261719 " clip-rule="nonzero"/></clipPath><clipPath id="a21b5ec230"><path d="M 7.855469 5.261719 L 24 5.261719 L 24 21.476562 L 7.855469 21.476562 Z M 7.855469 5.261719 " clip-rule="nonzero"/></clipPath></defs><g clip-path="url(#27f86a21f4)"><path fill="#ffffff" d="M 0.140625 0 L 30.363281 0 L 30.363281 28.007812 L 0.140625 28.007812 Z M 0.140625 0 " fill-opacity="1" fill-rule="nonzero"/></g><g clip-path="url(#601d5495f7)"><path fill="#ffffff" d="M 0.140625 0 L 29.789062 0 L 29.789062 27.902344 L 0.140625 27.902344 Z M 0.140625 0 " fill-opacity="1" fill-rule="nonzero"/></g><g clip-path="url(#268cd28070)"><path stroke-linecap="butt" transform="matrix(0.737069, 0, 0, 0.737069, 0.142242, 0.00139569)" fill="none" stroke-linejoin="miter" d="M -0.00219371 -0.00189357 L 40.264988 -0.00189357 L 40.264988 37.838022 L -0.00219371 37.838022 Z M -0.00219371 -0.00189357 " stroke="#c0c0c0" stroke-width="2" stroke-opacity="1" stroke-miterlimit="4"/></g><g clip-path="url(#54c5fc7f33)"><path fill="#c0c0c0" d="M 17.070312 13.191406 L 23.542969 19.664062 L 22.277344 20.929688 L 15.804688 14.457031 L 9.335938 20.929688 L 8.066406 19.664062 L 14.539062 13.191406 L 8.066406 6.71875 L 9.335938 5.453125 L 15.804688 11.925781 L 22.277344 5.453125 L 23.542969 6.71875 Z M 17.070312 13.191406 " fill-opacity="1" fill-rule="nonzero"/></g><g clip-path="url(#a21b5ec230)"><path fill="#c0c0c0" d="M 22.277344 21.105469 C 22.234375 21.105469 22.1875 21.089844 22.152344 21.054688 L 15.804688 14.707031 L 9.460938 21.054688 C 9.425781 21.089844 9.382812 21.105469 9.335938 21.105469 C 9.289062 21.105469 9.242188 21.089844 9.207031 21.054688 L 7.941406 19.789062 C 7.875 19.71875 7.875 19.609375 7.941406 19.539062 L 14.289062 13.191406 L 7.941406 6.84375 C 7.875 6.777344 7.875 6.664062 7.941406 6.59375 L 9.207031 5.328125 C 9.242188 5.296875 9.289062 5.277344 9.335938 5.277344 C 9.382812 5.277344 9.425781 5.296875 9.460938 5.328125 L 15.804688 11.675781 L 22.152344 5.328125 C 22.222656 5.261719 22.332031 5.261719 22.402344 5.328125 L 23.667969 6.59375 C 23.738281 6.664062 23.738281 6.777344 23.667969 6.84375 L 17.320312 13.191406 L 23.667969 19.539062 C 23.703125 19.570312 23.71875 19.617188 23.71875 19.664062 C 23.71875 19.710938 23.703125 19.757812 23.667969 19.789062 L 22.402344 21.054688 C 22.367188 21.089844 22.324219 21.105469 22.277344 21.105469 Z M 15.804688 14.28125 C 15.851562 14.28125 15.898438 14.296875 15.929688 14.332031 L 22.277344 20.679688 L 23.292969 19.664062 L 16.945312 13.316406 C 16.914062 13.285156 16.894531 13.238281 16.894531 13.191406 C 16.894531 13.144531 16.914062 13.101562 16.945312 13.066406 L 23.292969 6.71875 L 22.277344 5.703125 L 15.929688 12.050781 C 15.863281 12.121094 15.75 12.121094 15.679688 12.050781 L 9.335938 5.703125 L 8.320312 6.71875 L 14.664062 13.066406 C 14.734375 13.136719 14.734375 13.246094 14.664062 13.316406 L 8.320312 19.664062 L 9.335938 20.679688 L 15.679688 14.332031 C 15.714844 14.296875 15.761719 14.28125 15.804688 14.28125 Z M 15.804688 14.28125 " fill-opacity="1" fill-rule="nonzero"/></g></svg>