<svg xmlns="http://www.w3.org/2000/svg" xmlns:xlink="http://www.w3.org/1999/xlink" width="41" zoomAndPan="magnify" viewBox="0 0 30.75 28.499999" height="38" preserveAspectRatio="xMidYMid meet" version="1.0"><defs><clipPath id="56c88622bd"><path d="M 0.140625 0 L 30.363281 0 L 30.363281 28.007812 L 0.140625 28.007812 Z M 0.140625 0 " clip-rule="nonzero"/></clipPath><clipPath id="89bf664620"><path d="M 0.140625 0 L 29.832031 0 L 29.832031 27.902344 L 0.140625 27.902344 Z M 0.140625 0 " clip-rule="nonzero"/></clipPath><clipPath id="20677eb62d"><path d="M 0.140625 0 L 29.625 0 L 29.625 27.890625 L 0.140625 27.890625 Z M 0.140625 0 " clip-rule="nonzero"/></clipPath><clipPath id="f46e28bc61"><path d="M 7.566406 4.066406 L 22.304688 4.066406 L 22.304688 23.96875 L 7.566406 23.96875 Z M 7.566406 4.066406 " clip-rule="nonzero"/></clipPath></defs><g clip-path="url(#56c88622bd)"><path fill="#ffffff" d="M 0.140625 0 L 30.363281 0 L 30.363281 28.007812 L 0.140625 28.007812 Z M 0.140625 0 " fill-opacity="1" fill-rule="nonzero"/></g><g clip-path="url(#89bf664620)"><path fill="#ffffff" d="M 0.140625 0 L 29.789062 0 L 29.789062 27.902344 L 0.140625 27.902344 Z M 0.140625 0 " fill-opacity="1" fill-rule="nonzero"/></g><g clip-path="url(#20677eb62d)"><path stroke-linecap="butt" transform="matrix(0.737069, 0, 0, 0.737069, 0.142242, 0.00139569)" fill="none" stroke-linejoin="miter" d="M -0.00219371 -0.00189357 L 40.264988 -0.00189357 L 40.264988 37.838022 L -0.00219371 37.838022 Z M -0.00219371 -0.00189357 " stroke="#c0c0c0" stroke-width="2" stroke-opacity="1" stroke-miterlimit="4"/></g><g clip-path="url(#f46e28bc61)"><path fill="#c0c0c0" d="M 20.988281 9.738281 L 21.699219 9.738281 C 21.480469 11.484375 20.539062 19.007812 20.15625 22.085938 C 20.082031 22.679688 19.578125 23.125 18.980469 23.125 C 16.960938 23.125 13.140625 23.125 11.117188 23.125 C 10.523438 23.125 10.019531 22.679688 9.945312 22.085938 C 9.945312 22.085938 8.402344 9.738281 8.402344 9.738281 C 8.402344 9.738281 19.441406 9.738281 19.441406 9.738281 C 19.617188 9.738281 19.765625 9.59375 19.765625 9.414062 C 19.765625 9.234375 19.617188 9.089844 19.441406 9.089844 L 8.035156 9.089844 C 7.941406 9.089844 7.851562 9.128906 7.789062 9.199219 C 7.730469 9.269531 7.699219 9.363281 7.710938 9.457031 C 7.710938 9.457031 8.863281 18.675781 9.300781 22.167969 C 9.414062 23.085938 10.195312 23.773438 11.117188 23.773438 C 13.140625 23.773438 16.960938 23.773438 18.980469 23.773438 C 19.90625 23.773438 20.683594 23.085938 20.800781 22.167969 C 21.238281 18.675781 22.390625 9.457031 22.390625 9.457031 C 22.398438 9.363281 22.371094 9.269531 22.308594 9.199219 C 22.25 9.128906 22.160156 9.089844 22.066406 9.089844 L 20.988281 9.089844 C 20.808594 9.089844 20.664062 9.234375 20.664062 9.414062 C 20.664062 9.59375 20.808594 9.738281 20.988281 9.738281 Z M 14.726562 12.921875 L 14.726562 19.941406 C 14.726562 20.117188 14.871094 20.265625 15.050781 20.265625 C 15.230469 20.265625 15.375 20.117188 15.375 19.941406 L 15.375 12.921875 C 15.375 12.746094 15.230469 12.597656 15.050781 12.597656 C 14.871094 12.597656 14.726562 12.746094 14.726562 12.921875 Z M 10.980469 12.960938 L 11.554688 19.953125 C 11.570312 20.132812 11.726562 20.265625 11.90625 20.25 C 12.085938 20.238281 12.21875 20.078125 12.203125 19.902344 L 11.625 12.910156 C 11.609375 12.730469 11.453125 12.597656 11.273438 12.613281 C 11.097656 12.625 10.964844 12.78125 10.980469 12.960938 Z M 18.378906 12.910156 L 17.800781 19.902344 C 17.789062 20.078125 17.921875 20.238281 18.097656 20.25 C 18.277344 20.265625 18.433594 20.132812 18.449219 19.953125 L 19.027344 12.960938 C 19.039062 12.78125 18.90625 12.625 18.730469 12.613281 C 18.550781 12.597656 18.394531 12.730469 18.378906 12.910156 Z M 12.609375 6.875 L 7.839844 8.15625 C 7.664062 8.199219 7.5625 8.378906 7.609375 8.550781 C 7.65625 8.726562 7.832031 8.828125 8.007812 8.78125 L 21.5625 5.148438 C 21.734375 5.101562 21.835938 4.925781 21.789062 4.753906 C 21.742188 4.578125 21.566406 4.476562 21.394531 4.523438 L 16.625 5.800781 L 16.253906 4.417969 C 16.207031 4.246094 16.027344 4.144531 15.855469 4.191406 L 12.46875 5.097656 C 12.292969 5.144531 12.191406 5.324219 12.238281 5.496094 Z M 15.996094 5.96875 L 15.710938 4.902344 C 15.710938 4.902344 12.949219 5.640625 12.949219 5.640625 L 13.234375 6.707031 Z M 15.996094 5.96875 " fill-opacity="1" fill-rule="evenodd"/></g></svg>