<svg xmlns="http://www.w3.org/2000/svg" xmlns:xlink="http://www.w3.org/1999/xlink" width="1081" zoomAndPan="magnify" viewBox="0 0 810.75 820.499976" height="1094" preserveAspectRatio="xMidYMid meet" version="1.0"><defs><g/><clipPath id="1e92b570e3"><path d="M 63 0 L 747 0 L 747 755.539062 L 63 755.539062 Z M 63 0 " clip-rule="nonzero"/></clipPath><clipPath id="f87f52f73d"><path d="M 140.605469 50 L 687 50 L 687 685.148438 L 140.605469 685.148438 Z M 140.605469 50 " clip-rule="nonzero"/></clipPath></defs><path fill="#b5cfda" d="M 730.636719 111.242188 L 405.074219 10.125 L 79.664062 111.242188 C 79.664062 111.242188 0.464844 618.929688 405.074219 745.585938 C 809.835938 618.929688 730.636719 111.242188 730.636719 111.242188 Z M 730.636719 111.242188 " fill-opacity="1" fill-rule="nonzero"/><path fill="#000000" d="M 405.074219 747.097656 L 404.621094 746.949219 C 311.972656 717.929688 237.15625 666.539062 182.289062 593.839844 C 138.308594 535.800781 107.019531 464.3125 89.035156 381.183594 C 58.503906 239.863281 77.851562 112.148438 78 110.9375 L 78.152344 110.03125 L 405.074219 8.464844 L 405.527344 8.613281 L 731.996094 110.03125 L 732.148438 110.9375 C 732.300781 112.148438 751.644531 239.710938 721.113281 381.183594 C 703.128906 464.3125 671.84375 535.800781 627.859375 593.839844 C 572.996094 666.390625 498.179688 717.929688 405.527344 746.949219 Z M 81.023438 112.449219 C 79.363281 124.238281 63.191406 246.210938 92.210938 380.730469 C 110.042969 463.402344 141.179688 534.59375 184.859375 592.175781 C 239.269531 664.121094 313.480469 715.207031 405.226562 743.925781 C 496.96875 715.058594 571.179688 663.96875 625.59375 592.027344 C 669.273438 534.289062 700.40625 463.101562 718.242188 380.425781 C 747.261719 245.910156 731.089844 123.9375 729.425781 112.148438 L 405.074219 11.636719 Z M 81.023438 112.449219 " fill-opacity="1" fill-rule="nonzero"/><g clip-path="url(#1e92b570e3)"><path fill="#000000" d="M 746.355469 192.40625 C 745.296875 142.679688 740.460938 111.089844 740.160156 109.878906 L 739.25 103.984375 L 406.285156 0.300781 L 405.226562 0 L 71.050781 103.835938 L 70.140625 109.730469 C 69.992188 111.089844 65.15625 142.828125 63.945312 192.253906 C 62.886719 238.050781 65.15625 308.179688 81.175781 382.84375 C 99.3125 467.183594 131.203125 539.730469 175.792969 598.675781 C 231.714844 672.585938 307.890625 725.03125 402.203125 754.65625 L 405.074219 755.5625 L 407.945312 754.65625 C 502.261719 725.183594 578.4375 672.738281 634.359375 598.675781 C 678.945312 539.730469 710.835938 467.03125 728.972656 382.84375 C 745.144531 308.332031 747.261719 238.050781 746.355469 192.40625 Z M 405.074219 20.101562 L 721.871094 118.496094 C 725.195312 145.25 736.53125 256.640625 710.230469 378.765625 C 692.699219 460.230469 662.019531 530.359375 619.09375 587.039062 C 566.191406 657.019531 494.25 706.894531 405.226562 735.308594 C 316.203125 706.894531 244.410156 657.019531 191.511719 587.191406 C 148.585938 530.511719 117.902344 460.53125 100.21875 379.066406 C 84.351562 306.367188 82.234375 237.898438 83.140625 193.160156 C 83.894531 157.039062 86.769531 130.4375 88.28125 118.648438 Z M 405.074219 20.101562 " fill-opacity="1" fill-rule="nonzero"/></g><g clip-path="url(#f87f52f73d)"><path fill="#331b00" d="M 325.75 575.65625 C 323.101562 565.558594 321.464844 555.464844 320.992188 545.367188 C 368.242188 583.757812 391.070312 627.980469 406.078125 685.171875 C 483.371094 643.351562 520.507812 542.011719 478.09375 477.527344 L 505.757812 486.519531 C 483.375 448.914062 469.316406 412.550781 478.558594 381.535156 L 494.699219 389.457031 C 508.988281 362.484375 541.003906 377.160156 597.503906 393.679688 C 584.964844 362.960938 538.460938 307.058594 561.105469 280.488281 C 535.992188 242.351562 630.902344 239.390625 682.753906 270.375 C 689.1875 233.917969 690.652344 193.058594 658.511719 163.269531 C 640.835938 146.886719 617.296875 138.164062 592.65625 136.414062 C 561 134.175781 560.738281 119.992188 548.949219 105.152344 C 524.511719 74.378906 481.546875 59.117188 437.757812 57.480469 C 348.980469 36.765625 253.046875 60.769531 192.0625 114.964844 C 175.101562 130.046875 159.304688 141.707031 140.664062 154.890625 C 156.226562 152.949219 171.96875 151.503906 187.132812 147.839844 C 179.617188 160.261719 173.589844 172.535156 168.578125 184.707031 C 159.910156 205.757812 154.339844 226.953125 148.621094 248.644531 C 157.511719 243.941406 166.214844 238.679688 176.101562 235.738281 C 154.039062 281.871094 148.074219 326.707031 143.585938 376.027344 C 153.785156 368.21875 164.839844 358.75 176.910156 353.425781 C 181.546875 466.609375 242.875 526.558594 325.75 575.65625 " fill-opacity="1" fill-rule="evenodd"/></g><path fill="#9f0000" d="M 542.761719 345.324219 C 515.667969 330.707031 498.148438 314.664062 483.261719 290.152344 C 512.890625 279.964844 510.796875 316.304688 542.761719 345.324219 Z M 537.28125 327.46875 C 524.90625 305.097656 534.207031 284.054688 514.515625 285.144531 C 517.835938 302.042969 524.574219 314.382812 537.28125 327.46875 " fill-opacity="1" fill-rule="evenodd"/><path fill="#ff8902" d="M 400.589844 124.953125 C 402.121094 126.382812 403.667969 127.792969 405.230469 129.179688 C 397.941406 137.925781 400.175781 151.164062 411.550781 156.378906 C 422.933594 161.589844 433.484375 157.765625 437.597656 148.195312 C 439.601562 148.679688 441.648438 149.042969 443.753906 149.273438 C 440.039062 166.433594 423.714844 174.214844 405.933594 166.070312 C 388.601562 158.121094 386.578125 136.71875 400.589844 124.953125 " fill-opacity="1" fill-rule="evenodd"/><path fill="#af5d00" d="M 400.589844 124.953125 C 402.121094 126.382812 403.667969 127.792969 405.230469 129.179688 C 402.8125 132.085938 401.445312 135.480469 401.109375 138.917969 C 398.90625 136.566406 396.890625 134.003906 395.105469 131.238281 C 396.53125 128.953125 398.355469 126.832031 400.589844 124.953125 Z M 431.050781 156.054688 C 433.871094 154.253906 436.140625 151.585938 437.597656 148.195312 C 439.601562 148.679688 441.648438 149.042969 443.753906 149.273438 C 443.101562 152.28125 442.0625 154.992188 440.699219 157.390625 C 437.546875 157.257812 434.308594 156.808594 431.050781 156.054688 " fill-opacity="1" fill-rule="evenodd"/><path fill="#ff8800" d="M 583.121094 229.382812 C 519.644531 238.117188 488.492188 299.550781 445.507812 275.632812 C 451.839844 283.203125 459.730469 286.554688 468.414062 287.101562 C 489.941406 324.527344 521.046875 344.667969 562.746094 363.980469 C 555.089844 349.503906 545.511719 333.628906 540.730469 318.726562 C 545.691406 329.449219 552.699219 340.164062 559.785156 350.980469 C 564.777344 358.597656 569.800781 366.269531 574.023438 374.003906 C 513.113281 353.6875 461.929688 319.789062 427.421875 271.140625 C 447.167969 263.441406 460.140625 231.316406 468.367188 198.941406 C 477.855469 161.601562 482.386719 123.914062 505.777344 122.988281 C 519.578125 122.441406 527.941406 128.550781 530.515625 138.035156 C 523.011719 138.761719 512.398438 139.390625 505.371094 136.527344 C 512.546875 147.703125 520.003906 152.28125 538.277344 149.828125 C 574.800781 144.929688 620.589844 145.363281 648.511719 171.238281 C 671.113281 192.191406 675.027344 223.199219 671.953125 249.847656 C 557.128906 174.363281 485.023438 282.671875 458.402344 262.375 C 474.679688 286.277344 530.003906 231.097656 583.121094 229.382812 Z M 519.09375 173.320312 C 533.015625 168.996094 552.9375 167.160156 567.667969 168.351562 C 554.941406 154.585938 523.027344 153.371094 519.09375 173.320312 " fill-opacity="1" fill-rule="evenodd"/><path fill="#ffa238" d="M 475.332031 169.789062 C 481.601562 144.164062 488.601562 123.667969 505.777344 122.988281 C 519.578125 122.441406 527.941406 128.550781 530.515625 138.035156 C 523.011719 138.761719 512.398438 139.390625 505.371094 136.527344 C 512.546875 147.703125 520.003906 152.28125 538.277344 149.828125 C 574.800781 144.929688 620.589844 145.363281 648.511719 171.238281 C 664.851562 186.386719 671.425781 206.789062 672.652344 227 C 653.410156 167.078125 609.035156 162.027344 573.1875 164.40625 C 546.171875 145.953125 521.234375 151.257812 513.09375 170.117188 C 502.601562 171.835938 488.40625 172.199219 475.332031 169.789062 Z M 452.160156 244.390625 C 515.007812 234.878906 584.230469 165.402344 640.902344 190.183594 C 595.179688 151.316406 528.886719 204.539062 467.203125 203.398438 C 463.257812 218.109375 458.304688 232.53125 452.160156 244.390625 Z M 452.582031 282.019531 C 457.378906 285.183594 462.722656 286.742188 468.414062 287.101562 C 488.179688 321.460938 516.015625 341.246094 552.699219 359.199219 C 505.320312 342.984375 455.519531 296.589844 452.472656 282.003906 Z M 583.121094 229.382812 C 561.070312 232.414062 542.925781 241.808594 526.824219 251.773438 C 499.777344 266.652344 468.960938 284.042969 462.71875 266.472656 C 482.976562 278.285156 533.988281 230.96875 583.121094 229.382812 Z M 566.882812 168.292969 C 552.421875 167.242188 533.265625 169.023438 519.621094 173.164062 C 528.855469 189.820312 546.050781 172.40625 566.882812 168.292969 " fill-opacity="1" fill-rule="evenodd"/><path fill="#fffefd" d="M 536.527344 127.0625 C 531.011719 120.953125 525.039062 115.113281 516.652344 112.191406 C 507.910156 95.410156 493.140625 83.863281 469.761719 82.503906 C 483.1875 88.253906 495.503906 99.652344 497.738281 111.433594 C 486.457031 111.582031 477.316406 116.992188 470.261719 128.128906 C 461.980469 141.191406 454.054688 141.796875 438.699219 133.929688 C 412.964844 120.742188 387.496094 73.660156 320.445312 98.644531 C 381.964844 103.167969 368.601562 132.332031 380.664062 157.707031 C 370.875 152.144531 360.421875 144.921875 349.429688 136.433594 C 366.183594 160.730469 391.4375 179.707031 412.167969 181.898438 C 420.914062 182.820312 429.207031 182.238281 436.40625 178.882812 C 448.328125 173.316406 457.066406 175.464844 450.34375 197.277344 C 438.167969 236.828125 422.96875 265.511719 395.734375 267.878906 C 377.875 269.4375 349.75 270.289062 331.9375 226.894531 C 330.898438 239.414062 332.789062 250.984375 337.082031 260.78125 C 313.574219 285.851562 302.09375 317.199219 297.011719 348.757812 L 282.746094 333.628906 C 265.011719 373.007812 258.980469 438.765625 273.800781 478.625 C 272.335938 440.289062 271.039062 392.753906 286.726562 356.816406 L 307.40625 378.75 C 313.128906 333.425781 325.480469 298.457031 349.421875 278.457031 C 322.582031 320.140625 325.488281 365.332031 333.359375 410.828125 L 315.308594 399.027344 C 294.089844 440.109375 288.167969 478.128906 297.488281 522.089844 C 218.726562 467.910156 199.589844 365.914062 243.078125 274.605469 L 259.820312 300.160156 C 269.457031 263.65625 277.898438 242.410156 303.441406 210.773438 C 279.839844 222.136719 260.160156 252.144531 254.671875 267.976562 L 244.113281 251.859375 C 208.054688 294.09375 199.027344 358.496094 204.246094 410.179688 C 193.453125 364.414062 200.777344 314.226562 211.617188 258.636719 C 196.371094 299.5 181.296875 332.285156 160.28125 347.914062 C 168.777344 273.507812 196.589844 225.25 227.722656 158.195312 C 210.058594 185.484375 189.976562 215.867188 169.363281 224.90625 C 187.503906 161.992188 200.574219 146.648438 254.203125 101.164062 C 236.492188 110.914062 208.40625 129.015625 189.617188 134.476562 C 258.761719 75.484375 338.402344 46.363281 436.558594 69.355469 C 479.136719 70.734375 531.390625 80.59375 540.929688 123.324219 C 542.226562 129.128906 540.78125 131.765625 536.527344 127.0625 Z M 462.179688 327.082031 C 429.546875 295.300781 400.734375 295.933594 370.734375 313.714844 C 355.414062 290.675781 342.410156 335.121094 341.898438 351.878906 C 341.011719 380.875 347.140625 409.855469 352.511719 438.398438 L 321.050781 417.832031 C 288.976562 520.796875 388.742188 547.847656 421.699219 643.894531 C 494.222656 600.824219 499.601562 519.371094 452.207031 456.339844 L 480.542969 465.703125 C 457.570312 433.390625 453.609375 398.316406 465.542969 362.230469 L 485.644531 370.988281 C 491.152344 359.253906 485.324219 343.679688 472.503906 335.265625 C 443.753906 355.679688 437.738281 376.636719 433.808594 408.214844 L 415.136719 395.773438 C 422.039062 456.324219 468.070312 486.910156 464.195312 559.359375 C 456.621094 555.710938 449.046875 552.8125 441.480469 550.578125 C 443.800781 567.832031 445.121094 594.148438 429.480469 622.6875 C 435.988281 586.921875 432.089844 563.285156 420.671875 529.34375 C 430.582031 532.382812 440.707031 536.199219 451.160156 541.121094 C 449.945312 482.953125 401.007812 440.683594 400.386719 370.828125 L 423.0625 385.929688 C 428.199219 361.835938 440.9375 342.71875 462.179688 327.082031 " fill-opacity="1" fill-rule="evenodd"/><path fill="#ff8d0a" d="M 431.175781 163.414062 C 415.261719 163.871094 405.886719 160.527344 397.964844 147.929688 C 395.828125 164.59375 415.890625 171.101562 431.175781 163.414062 " fill-opacity="1" fill-rule="evenodd"/><path fill="#fffefd" d="M 404.148438 131.652344 C 401.320312 131.652344 399.035156 134.417969 399.035156 137.832031 C 399.035156 141.242188 401.320312 144.011719 404.148438 144.011719 C 406.964844 144.011719 409.253906 141.242188 409.253906 137.832031 C 409.253906 134.417969 406.964844 131.652344 404.148438 131.652344 " fill-opacity="1" fill-rule="evenodd"/><path fill="#fffefd" d="M 420.921875 153.199219 C 419.554688 153.785156 419.222656 155.613281 420.183594 157.265625 C 421.148438 158.925781 423.035156 159.785156 424.410156 159.191406 C 425.773438 158.597656 426.105469 156.777344 425.144531 155.121094 C 424.183594 153.460938 422.296875 152.601562 420.921875 153.199219 " fill-opacity="1" fill-rule="evenodd"/><g fill="#f15226" fill-opacity="1"><g transform="translate(165.075488, 604.387717)"><g><path d="M 37.984375 -35.859375 L 38.25 -35.765625 L 39.09375 -34.84375 L 39.09375 -34.390625 L 39 -34.203125 C 38.382812 -33.585938 37.953125 -32.769531 37.703125 -31.75 C 37.453125 -30.738281 37.269531 -29.648438 37.15625 -28.484375 L 36.96875 -10.421875 C 36.90625 -9.617188 37.054688 -8.832031 37.421875 -8.0625 C 37.796875 -7.289062 38.289062 -6.628906 38.90625 -6.078125 L 39 -5.90625 L 39 -5.0625 L 38.625 -4.796875 C 36.96875 -4.972656 35.613281 -4.660156 34.5625 -3.859375 C 33.519531 -3.066406 33 -2.054688 33 -0.828125 L 33 -0.28125 L 32.71875 0 L 6.359375 0 L 5.984375 -0.28125 C 5.804688 -1.382812 5.222656 -2.347656 4.234375 -3.171875 C 3.253906 -4.003906 2.085938 -4.484375 0.734375 -4.609375 L 0.375 -4.609375 L 0 -4.984375 L 0 -5.71875 L 0.09375 -5.90625 C 0.707031 -6.332031 1.085938 -6.898438 1.234375 -7.609375 C 1.390625 -8.316406 1.46875 -9.066406 1.46875 -9.859375 L 1.46875 -29.953125 L 17.328125 -19.546875 L 17.328125 -10.046875 C 17.328125 -9.796875 17.40625 -9.488281 17.5625 -9.125 C 17.71875 -8.757812 17.914062 -8.453125 18.15625 -8.203125 C 18.832031 -7.585938 19.613281 -7.539062 20.5 -8.0625 C 21.394531 -8.582031 21.84375 -9.210938 21.84375 -9.953125 L 21.84375 -28.296875 C 21.84375 -28.296875 21.320312 -28.664062 20.28125 -29.40625 C 19.238281 -30.144531 17.898438 -31.097656 16.265625 -32.265625 C 14.640625 -33.429688 12.96875 -34.613281 11.25 -35.8125 C 9.53125 -37.007812 7.976562 -38.082031 6.59375 -39.03125 C 5.207031 -39.988281 4.238281 -40.648438 3.6875 -41.015625 C 3.257812 -41.203125 2.8125 -41.359375 2.34375 -41.484375 C 1.882812 -41.609375 1.472656 -41.671875 1.109375 -41.671875 C 1.046875 -41.671875 0.953125 -41.703125 0.828125 -41.765625 L 0.09375 -42.59375 C 0.03125 -42.59375 0 -42.65625 0 -42.78125 L 0 -43.046875 L 0.09375 -43.234375 C 0.945312 -44.273438 1.390625 -45.703125 1.421875 -47.515625 C 1.453125 -49.328125 1.53125 -51.15625 1.65625 -53 L 1.65625 -61.21875 C 1.65625 -62.070312 1.578125 -62.867188 1.421875 -63.609375 C 1.273438 -64.347656 0.863281 -64.960938 0.1875 -65.453125 C 0.0625 -65.515625 0 -65.789062 0 -66.28125 C 0.0625 -66.59375 0.210938 -66.734375 0.453125 -66.703125 C 0.703125 -66.671875 0.828125 -66.65625 0.828125 -66.65625 C 2.304688 -66.53125 3.597656 -66.910156 4.703125 -67.796875 C 5.804688 -68.691406 6.359375 -69.753906 6.359375 -70.984375 C 6.359375 -71.109375 6.328125 -71.234375 6.265625 -71.359375 C 6.265625 -71.472656 6.328125 -71.59375 6.453125 -71.71875 C 6.515625 -71.78125 6.640625 -71.8125 6.828125 -71.8125 L 32.71875 -71.90625 L 33.09375 -71.625 C 33.28125 -70.457031 33.863281 -69.472656 34.84375 -68.671875 C 35.832031 -67.878906 37 -67.421875 38.34375 -67.296875 L 38.4375 -67.296875 L 38.8125 -66.921875 L 38.90625 -65.640625 L 38.8125 -65.453125 C 37.769531 -64.585938 37.25 -63.359375 37.25 -61.765625 L 37.25 -45.71875 L 22.03125 -55.40625 L 22.03125 -62.6875 C 21.96875 -62.988281 21.734375 -63.382812 21.328125 -63.875 C 20.929688 -64.375 20.335938 -64.625 19.546875 -64.625 C 18.617188 -64.625 17.957031 -64.363281 17.5625 -63.84375 C 17.164062 -63.320312 16.96875 -62.8125 16.96875 -62.3125 L 16.96875 -49.78125 C 16.96875 -49.78125 17.582031 -49.316406 18.8125 -48.390625 C 20.039062 -47.472656 21.5625 -46.351562 23.375 -45.03125 C 25.1875 -43.707031 27.015625 -42.382812 28.859375 -41.0625 C 30.703125 -39.75 32.253906 -38.644531 33.515625 -37.75 C 34.773438 -36.851562 35.429688 -36.378906 35.484375 -36.328125 C 36.410156 -36.015625 37.242188 -35.859375 37.984375 -35.859375 Z M 37.984375 -35.859375 "/></g></g></g><g fill="#f15226" fill-opacity="1"><g transform="translate(207.114952, 604.387717)"><g><path d="M 4.890625 -7.5625 L 4.890625 -64.625 L 2.578125 -64.53125 L 2.578125 -68.671875 L 0 -71.171875 L 0 -72 L 45.90625 -71.90625 L 45.90625 -71.171875 L 43.421875 -68.671875 L 43.421875 -64.53125 L 41.015625 -64.53125 L 41.015625 -45.8125 L 24.609375 -55.21875 L 24.609375 -62.140625 C 24.609375 -62.140625 24.59375 -62.351562 24.5625 -62.78125 C 24.53125 -63.207031 24.375 -63.617188 24.09375 -64.015625 C 23.820312 -64.421875 23.316406 -64.625 22.578125 -64.625 C 21.847656 -64.625 21.328125 -64.390625 21.015625 -63.921875 C 20.710938 -63.460938 20.546875 -63.003906 20.515625 -62.546875 C 20.484375 -62.085938 20.46875 -61.859375 20.46875 -61.859375 L 20.5625 -45.078125 L 30.046875 -45.078125 L 32.8125 -31.625 L 20.5625 -31.625 L 20.5625 -9.859375 C 20.5625 -9.859375 20.578125 -9.671875 20.609375 -9.296875 C 20.640625 -8.929688 20.773438 -8.550781 21.015625 -8.15625 C 21.265625 -7.757812 21.726562 -7.5625 22.40625 -7.5625 C 23.195312 -7.5625 23.742188 -7.757812 24.046875 -8.15625 C 24.359375 -8.550781 24.53125 -8.929688 24.5625 -9.296875 C 24.59375 -9.671875 24.609375 -9.859375 24.609375 -9.859375 L 24.609375 -19.359375 L 41.015625 -29.03125 L 41.015625 -7.5625 L 43.421875 -7.5625 L 43.421875 -3.21875 L 45.90625 -0.828125 L 45.90625 0 L 0 0 L 0 -0.828125 L 2.578125 -3.21875 L 2.578125 -7.5625 Z M 4.890625 -7.5625 "/></g></g></g><g fill="#f15226" fill-opacity="1"><g transform="translate(255.792226, 604.387717)"><g><path d="M 37.984375 -35.859375 L 38.25 -35.765625 L 39.09375 -34.84375 L 39.09375 -34.390625 L 39 -34.203125 C 38.382812 -33.585938 37.953125 -32.769531 37.703125 -31.75 C 37.453125 -30.738281 37.269531 -29.648438 37.15625 -28.484375 L 36.96875 -10.421875 C 36.90625 -9.617188 37.054688 -8.832031 37.421875 -8.0625 C 37.796875 -7.289062 38.289062 -6.628906 38.90625 -6.078125 L 39 -5.90625 L 39 -5.0625 L 38.625 -4.796875 C 36.96875 -4.972656 35.613281 -4.660156 34.5625 -3.859375 C 33.519531 -3.066406 33 -2.054688 33 -0.828125 L 33 -0.28125 L 32.71875 0 L 6.359375 0 L 5.984375 -0.28125 C 5.804688 -1.382812 5.222656 -2.347656 4.234375 -3.171875 C 3.253906 -4.003906 2.085938 -4.484375 0.734375 -4.609375 L 0.375 -4.609375 L 0 -4.984375 L 0 -5.71875 L 0.09375 -5.90625 C 0.707031 -6.332031 1.085938 -6.898438 1.234375 -7.609375 C 1.390625 -8.316406 1.46875 -9.066406 1.46875 -9.859375 L 1.46875 -29.953125 L 17.328125 -19.546875 L 17.328125 -10.046875 C 17.328125 -9.796875 17.40625 -9.488281 17.5625 -9.125 C 17.71875 -8.757812 17.914062 -8.453125 18.15625 -8.203125 C 18.832031 -7.585938 19.613281 -7.539062 20.5 -8.0625 C 21.394531 -8.582031 21.84375 -9.210938 21.84375 -9.953125 L 21.84375 -28.296875 C 21.84375 -28.296875 21.320312 -28.664062 20.28125 -29.40625 C 19.238281 -30.144531 17.898438 -31.097656 16.265625 -32.265625 C 14.640625 -33.429688 12.96875 -34.613281 11.25 -35.8125 C 9.53125 -37.007812 7.976562 -38.082031 6.59375 -39.03125 C 5.207031 -39.988281 4.238281 -40.648438 3.6875 -41.015625 C 3.257812 -41.203125 2.8125 -41.359375 2.34375 -41.484375 C 1.882812 -41.609375 1.472656 -41.671875 1.109375 -41.671875 C 1.046875 -41.671875 0.953125 -41.703125 0.828125 -41.765625 L 0.09375 -42.59375 C 0.03125 -42.59375 0 -42.65625 0 -42.78125 L 0 -43.046875 L 0.09375 -43.234375 C 0.945312 -44.273438 1.390625 -45.703125 1.421875 -47.515625 C 1.453125 -49.328125 1.53125 -51.15625 1.65625 -53 L 1.65625 -61.21875 C 1.65625 -62.070312 1.578125 -62.867188 1.421875 -63.609375 C 1.273438 -64.347656 0.863281 -64.960938 0.1875 -65.453125 C 0.0625 -65.515625 0 -65.789062 0 -66.28125 C 0.0625 -66.59375 0.210938 -66.734375 0.453125 -66.703125 C 0.703125 -66.671875 0.828125 -66.65625 0.828125 -66.65625 C 2.304688 -66.53125 3.597656 -66.910156 4.703125 -67.796875 C 5.804688 -68.691406 6.359375 -69.753906 6.359375 -70.984375 C 6.359375 -71.109375 6.328125 -71.234375 6.265625 -71.359375 C 6.265625 -71.472656 6.328125 -71.59375 6.453125 -71.71875 C 6.515625 -71.78125 6.640625 -71.8125 6.828125 -71.8125 L 32.71875 -71.90625 L 33.09375 -71.625 C 33.28125 -70.457031 33.863281 -69.472656 34.84375 -68.671875 C 35.832031 -67.878906 37 -67.421875 38.34375 -67.296875 L 38.4375 -67.296875 L 38.8125 -66.921875 L 38.90625 -65.640625 L 38.8125 -65.453125 C 37.769531 -64.585938 37.25 -63.359375 37.25 -61.765625 L 37.25 -45.71875 L 22.03125 -55.40625 L 22.03125 -62.6875 C 21.96875 -62.988281 21.734375 -63.382812 21.328125 -63.875 C 20.929688 -64.375 20.335938 -64.625 19.546875 -64.625 C 18.617188 -64.625 17.957031 -64.363281 17.5625 -63.84375 C 17.164062 -63.320312 16.96875 -62.8125 16.96875 -62.3125 L 16.96875 -49.78125 C 16.96875 -49.78125 17.582031 -49.316406 18.8125 -48.390625 C 20.039062 -47.472656 21.5625 -46.351562 23.375 -45.03125 C 25.1875 -43.707031 27.015625 -42.382812 28.859375 -41.0625 C 30.703125 -39.75 32.253906 -38.644531 33.515625 -37.75 C 34.773438 -36.851562 35.429688 -36.378906 35.484375 -36.328125 C 36.410156 -36.015625 37.242188 -35.859375 37.984375 -35.859375 Z M 37.984375 -35.859375 "/></g></g></g><g fill="#f15226" fill-opacity="1"><g transform="translate(297.831691, 604.387717)"><g><path d="M 2.484375 -68.671875 L 0 -71.078125 L 0 -71.90625 L 25.34375 -71.90625 L 25.34375 -71.078125 L 22.859375 -68.671875 L 22.859375 -64.53125 L 20.5625 -64.53125 L 20.5625 -7.5625 L 22.859375 -7.5625 L 22.859375 -3.21875 L 25.34375 -0.828125 L 25.34375 0 L 0 0 L 0 -0.828125 L 2.484375 -3.21875 L 2.578125 -7.5625 L 4.796875 -7.5625 L 4.796875 -64.53125 L 2.484375 -64.53125 Z M 2.484375 -68.671875 "/></g></g></g><path stroke-linecap="butt" transform="matrix(0.765971, 0, 0, 0.765971, 161.001062, 508.396819)" fill="none" stroke-linejoin="miter" d="M 49.603757 73.188442 L 49.955639 73.305736 L 51.041883 74.514373 L 51.041883 75.100843 L 50.924589 75.335431 C 50.11883 76.13609 49.552759 77.207035 49.221276 78.538066 C 48.905093 79.869097 48.670505 81.291924 48.512413 82.796347 L 48.252326 106.39283 C 48.170731 107.433177 48.37472 108.463324 48.869395 109.478171 C 49.358969 110.47772 50.001536 111.339576 50.807295 112.063738 L 50.924589 112.303426 L 50.924589 113.38967 L 50.424814 113.741552 C 48.267626 113.506964 46.508216 113.909843 45.136387 114.94509 C 43.764558 115.985436 43.076093 117.306268 43.076093 118.912685 L 43.076093 119.647047 L 42.724211 119.998929 L 8.316285 119.998929 L 7.81651 119.647047 C 7.581922 118.198722 6.816962 116.933987 5.526728 115.857943 C 4.251794 114.761499 2.732072 114.134231 0.967563 113.97614 L 0.467789 113.97614 L -0.00138678 113.506964 L -0.00138678 112.538014 L 0.115907 112.303426 C 0.921666 111.732255 1.42144 110.987694 1.61523 110.069741 C 1.829419 109.146689 1.941613 108.167539 1.941613 107.127193 L 1.941613 80.889045 L 22.626147 94.495144 L 22.626147 106.892605 C 22.626147 107.208788 22.723042 107.611668 22.921932 108.101242 C 23.136121 108.570418 23.401307 108.963098 23.712391 109.274182 C 24.594646 110.07994 25.614593 110.146237 26.767134 109.478171 C 27.945173 108.794807 28.531643 107.973749 28.531643 107.009899 L 28.531643 83.061533 C 28.531643 83.061533 27.848278 82.582158 26.476449 81.623407 C 25.104619 80.644257 23.35031 79.399922 21.21352 77.890399 C 19.102229 76.365578 16.914441 74.815258 14.665457 73.249639 C 12.431772 71.684019 10.412277 70.281592 8.612069 69.047455 C 6.806762 67.79292 5.542028 66.920865 4.817865 66.43129 C 4.251794 66.196702 3.665324 66.002912 3.058456 65.84482 C 2.466886 65.686728 1.931414 65.610232 1.441839 65.610232 C 1.360243 65.610232 1.242949 65.569434 1.084857 65.492938 L 0.115907 64.401595 C 0.0394111 64.401595 -0.00138678 64.314899 -0.00138678 64.141508 L -0.00138678 63.784526 L 0.115907 63.549938 C 1.23275 62.178109 1.81412 60.321805 1.849818 57.970826 C 1.911015 55.599448 2.018109 53.207671 2.176201 50.800596 L 2.176201 40.075848 C 2.176201 38.959006 2.069107 37.918659 1.849818 36.959909 C 1.656028 36.001158 1.115456 35.1954 0.233201 34.547733 C 0.080209 34.471237 -0.00138678 34.109156 -0.00138678 33.461489 C 0.080209 33.068809 0.273999 32.895418 0.590183 32.931116 C 0.921666 32.971914 1.084857 32.992313 1.084857 32.992313 C 3.007458 33.150405 4.690371 32.650631 6.143797 31.492991 C 7.592122 30.320051 8.316285 28.927823 8.316285 27.321406 C 8.316285 27.163314 8.275487 27.005222 8.198991 26.85223 C 8.198991 26.694138 8.275487 26.525847 8.433579 26.352456 C 8.510075 26.27086 8.668166 26.235162 8.902754 26.235162 L 42.724211 26.117868 L 43.193387 26.469749 C 43.448374 27.994571 44.213335 29.289904 45.488269 30.34555 C 46.778502 31.385896 48.308423 31.982565 50.072933 32.140657 L 50.190226 32.140657 L 50.659402 32.609833 L 50.807295 34.313145 L 50.659402 34.547733 C 49.307972 35.664576 48.629707 37.270993 48.629707 39.366985 L 48.629707 60.291206 L 28.766231 47.654058 L 28.766231 38.163447 C 28.689735 37.750368 28.38375 37.235295 27.858477 36.608027 C 27.348504 35.96036 26.563144 35.633977 25.507499 35.633977 C 24.30906 35.633977 23.447205 35.980759 22.921932 36.664124 C 22.411958 37.33219 22.156971 37.984956 22.156971 38.632623 L 22.156971 55.002779 C 22.156971 55.002779 22.95763 55.609648 24.564047 56.823385 C 26.170464 58.016724 28.149162 59.475248 30.500141 61.19896 C 32.871519 62.922671 35.263296 64.646382 37.670372 66.375193 C 40.082547 68.098904 42.107143 69.547229 43.754358 70.720169 C 45.401573 71.877809 46.263429 72.494877 46.339925 72.571374 C 47.533263 72.984452 48.619507 73.188442 49.603757 73.188442 Z M 61.261756 110.125838 L 61.261756 35.633977 L 58.26311 35.756371 L 58.26311 30.320051 L 54.881985 27.086818 L 54.881985 26.000574 L 114.829395 26.117868 L 114.829395 27.086818 L 111.565563 30.320051 L 111.565563 35.756371 L 108.454724 35.756371 L 108.454724 60.173912 L 87.030728 47.919244 L 87.030728 38.867211 C 87.030728 38.867211 87.010329 38.596924 86.969531 38.046153 C 86.933833 37.480082 86.724744 36.93951 86.352463 36.429536 C 86.000581 35.899164 85.347815 35.633977 84.383964 35.633977 C 83.404815 35.633977 82.71125 35.939961 82.298172 36.54683 C 81.910592 37.1333 81.691303 37.729969 81.655605 38.341938 C 81.614807 38.948806 81.594408 39.249691 81.594408 39.249691 L 81.711702 61.142863 L 94.114263 61.142863 L 97.724877 78.716557 L 81.711702 78.716557 L 81.711702 107.127193 C 81.711702 107.127193 81.732101 107.37198 81.772899 107.861555 C 81.828996 108.33583 82.017686 108.835605 82.32877 109.360877 C 82.644954 109.870851 83.241623 110.125838 84.123878 110.125838 C 85.179523 110.125838 85.903686 109.870851 86.296366 109.360877 C 86.709444 108.835605 86.933833 108.33583 86.969531 107.861555 C 87.010329 107.37198 87.030728 107.127193 87.030728 107.127193 L 87.030728 94.729732 L 108.454724 82.092583 L 108.454724 110.125838 L 111.565563 110.125838 L 111.565563 115.796746 L 114.829395 118.912685 L 114.829395 119.998929 L 54.881985 119.998929 L 54.881985 118.912685 L 58.26311 115.796746 L 58.26311 110.125838 Z M 168.034953 73.188442 L 168.386835 73.305736 L 169.473079 74.514373 L 169.473079 75.100843 L 169.355785 75.335431 C 168.555126 76.13609 167.983956 77.207035 167.652473 78.538066 C 167.341389 79.869097 167.106801 81.291924 166.948709 82.796347 L 166.683523 106.39283 C 166.607027 107.433177 166.811016 108.463324 167.300591 109.478171 C 167.790166 110.47772 168.437832 111.339576 169.238491 112.063738 L 169.355785 112.303426 L 169.355785 113.38967 L 168.856011 113.741552 C 166.703922 113.506964 164.939413 113.909843 163.567583 114.94509 C 162.195754 115.985436 161.512389 117.306268 161.512389 118.912685 L 161.512389 119.647047 L 161.160507 119.998929 L 126.747481 119.998929 L 126.247707 119.647047 C 126.013119 118.198722 125.253258 116.933987 123.957925 115.857943 C 122.68299 114.761499 121.168368 114.134231 119.403859 113.97614 L 118.904085 113.97614 L 118.434909 113.506964 L 118.434909 112.538014 L 118.552203 112.303426 C 119.352862 111.732255 119.852636 110.987694 120.051526 110.069741 C 120.265715 109.146689 120.372809 108.167539 120.372809 107.127193 L 120.372809 80.889045 L 141.062443 94.495144 L 141.062443 106.892605 C 141.062443 107.208788 141.159338 107.611668 141.353128 108.101242 C 141.567317 108.570418 141.832503 108.963098 142.148687 109.274182 C 143.030942 110.07994 144.045789 110.146237 145.20343 109.478171 C 146.376369 108.794807 146.967939 107.973749 146.967939 107.009899 L 146.967939 83.061533 C 146.967939 83.061533 146.279474 82.582158 144.907645 81.623407 C 143.535816 80.644257 141.786606 79.399922 139.649816 77.890399 C 137.533425 76.365578 135.350738 74.815258 133.096654 73.249639 C 130.862969 71.684019 128.843473 70.281592 127.043266 69.047455 C 125.243058 67.79292 123.978324 66.920865 123.254161 66.43129 C 122.68299 66.196702 122.096521 66.002912 121.489652 65.84482 C 120.903182 65.686728 120.36261 65.610232 119.873035 65.610232 C 119.796539 65.610232 119.679245 65.569434 119.521153 65.492938 L 118.552203 64.401595 C 118.470607 64.401595 118.434909 64.314899 118.434909 64.141508 L 118.434909 63.784526 L 118.552203 63.549938 C 119.669046 62.178109 120.245316 60.321805 120.286114 57.970826 C 120.342211 55.599448 120.449306 53.207671 120.607397 50.800596 L 120.607397 40.075848 C 120.607397 38.959006 120.500303 37.918659 120.286114 36.959909 C 120.087224 36.001158 119.551752 35.1954 118.669497 34.547733 C 118.511405 34.471237 118.434909 34.109156 118.434909 33.461489 C 118.511405 33.068809 118.710295 32.895418 119.021379 32.931116 C 119.352862 32.971914 119.521153 32.992313 119.521153 32.992313 C 121.438655 33.150405 123.126668 32.650631 124.574993 31.492991 C 126.023318 30.320051 126.747481 28.927823 126.747481 27.321406 C 126.747481 27.163314 126.711783 27.005222 126.630187 26.85223 C 126.630187 26.694138 126.711783 26.525847 126.864775 26.352456 C 126.946371 26.27086 127.104463 26.235162 127.33905 26.235162 L 161.160507 26.117868 L 161.629683 26.469749 C 161.88467 27.994571 162.649631 29.289904 163.919465 30.34555 C 165.214798 31.385896 166.74472 31.982565 168.504129 32.140657 L 168.621423 32.140657 L 169.090599 32.609833 L 169.238491 34.313145 L 169.090599 34.547733 C 167.739168 35.664576 167.066003 37.270993 167.066003 39.366985 L 167.066003 60.291206 L 147.202527 47.654058 L 147.202527 38.163447 C 147.120931 37.750368 146.820046 37.235295 146.289674 36.608027 C 145.7797 35.96036 144.99944 35.633977 143.938695 35.633977 C 142.745356 35.633977 141.883501 35.980759 141.353128 36.664124 C 140.843154 37.33219 140.588168 37.984956 140.588168 38.632623 L 140.588168 55.002779 C 140.588168 55.002779 141.393926 55.609648 143.000343 56.823385 C 144.606761 58.016724 146.585459 59.475248 148.936437 61.19896 C 151.307815 62.922671 153.694492 64.646382 156.106668 66.375193 C 158.513744 68.098904 160.543439 69.547229 162.185555 70.720169 C 163.83277 71.877809 164.694625 72.494877 164.771121 72.571374 C 165.96956 72.984452 167.055804 73.188442 168.034953 73.188442 Z M 176.577013 30.320051 L 173.318281 27.204112 L 173.318281 26.117868 L 206.405376 26.117868 L 206.405376 27.204112 L 203.172142 30.320051 L 203.172142 35.756371 L 200.147998 35.756371 L 200.147998 110.125838 L 203.172142 110.125838 L 203.172142 115.796746 L 206.405376 118.912685 L 206.405376 119.998929 L 173.318281 119.998929 L 173.318281 118.912685 L 176.577013 115.796746 L 176.694307 110.125838 L 179.575658 110.125838 L 179.575658 35.756371 L 176.577013 35.756371 Z M 176.577013 30.320051 " stroke="#000000" stroke-width="4.513579" stroke-opacity="1" stroke-miterlimit="4"/><g fill="#808080" fill-opacity="1"><g transform="translate(167.873699, 738.334711)"><g><path d="M 8.234375 -12.75 L 8.234375 -109 L 4.359375 -108.84375 L 4.359375 -115.84375 L 0 -120.046875 L 0 -121.453125 L 77.4375 -121.296875 L 77.4375 -120.046875 L 73.234375 -115.84375 L 73.234375 -108.84375 L 69.203125 -108.84375 L 69.203125 -77.28125 L 41.515625 -93.140625 L 41.515625 -104.8125 C 41.515625 -104.8125 41.488281 -105.171875 41.4375 -105.890625 C 41.382812 -106.617188 41.125 -107.316406 40.65625 -107.984375 C 40.195312 -108.660156 39.34375 -109 38.09375 -109 C 36.851562 -109 35.972656 -108.609375 35.453125 -107.828125 C 34.929688 -107.054688 34.644531 -106.28125 34.59375 -105.5 C 34.539062 -104.726562 34.515625 -104.34375 34.515625 -104.34375 L 34.671875 -76.046875 L 50.6875 -76.046875 L 55.359375 -53.34375 L 34.671875 -53.34375 L 34.671875 -16.640625 C 34.671875 -16.640625 34.695312 -16.328125 34.75 -15.703125 C 34.800781 -15.078125 35.035156 -14.425781 35.453125 -13.75 C 35.867188 -13.082031 36.644531 -12.75 37.78125 -12.75 C 39.132812 -12.75 40.066406 -13.082031 40.578125 -13.75 C 41.097656 -14.425781 41.382812 -15.078125 41.4375 -15.703125 C 41.488281 -16.328125 41.515625 -16.640625 41.515625 -16.640625 L 41.515625 -32.65625 L 69.203125 -48.984375 L 69.203125 -12.75 L 73.234375 -12.75 L 73.234375 -5.4375 L 77.4375 -1.40625 L 77.4375 0 L 0 0 L 0 -1.40625 L 4.359375 -5.4375 L 4.359375 -12.75 Z M 8.234375 -12.75 "/></g></g></g><g fill="#808080" fill-opacity="1"><g transform="translate(249.981106, 738.334711)"><g><path d="M 86.921875 -5.4375 L 91.125 -1.40625 L 91.125 0 L 52.09375 0 L 52.09375 -1.25 L 56.453125 -5.59375 L 56.453125 -12.75 L 60.171875 -12.75 L 55.515625 -35.453125 C 54.367188 -34.316406 53.300781 -32.632812 52.3125 -30.40625 C 51.332031 -28.175781 50.453125 -25.894531 49.671875 -23.5625 C 48.898438 -21.226562 48.28125 -19.203125 47.8125 -17.484375 C 47.34375 -15.773438 47.109375 -14.921875 47.109375 -14.921875 C 46.910156 -14.410156 46.550781 -14.15625 46.03125 -14.15625 C 45.40625 -14.15625 45.09375 -14.460938 45.09375 -15.078125 C 44.988281 -17.046875 44.390625 -19.484375 43.296875 -22.390625 C 42.210938 -25.296875 41.019531 -27.988281 39.71875 -30.46875 C 38.425781 -32.957031 37.316406 -34.617188 36.390625 -35.453125 L 32.1875 -12.75 L 36.234375 -12.75 L 36.234375 -5.4375 L 40.578125 -1.40625 L 40.578125 0 L 0 0 L 0 -1.40625 L 4.359375 -5.4375 L 4.359375 -12.75 L 8.234375 -12.75 L 27.0625 -108.84375 L 23.015625 -108.84375 L 23.015625 -115.84375 L 18.8125 -119.890625 L 18.8125 -121.453125 L 72.15625 -121.453125 L 72.15625 -119.890625 L 67.953125 -115.84375 L 67.953125 -109 L 64.0625 -108.84375 L 83.03125 -12.75 L 86.921875 -12.75 Z M 46.03125 -42.609375 C 46.34375 -43.234375 46.960938 -44.007812 47.890625 -44.9375 C 48.828125 -45.875 49.785156 -46.804688 50.765625 -47.734375 C 51.753906 -48.671875 52.507812 -49.347656 53.03125 -49.765625 L 46.03125 -103.5625 L 39.8125 -49.453125 C 40.632812 -48.722656 41.769531 -47.554688 43.21875 -45.953125 C 44.675781 -44.347656 45.613281 -43.234375 46.03125 -42.609375 Z M 46.03125 -42.609375 "/></g></g></g><g fill="#808080" fill-opacity="1"><g transform="translate(344.995555, 738.334711)"><g><path d="M 72 -55.203125 L 72.625 -54.734375 C 72.820312 -54.316406 72.84375 -53.925781 72.6875 -53.5625 C 72.539062 -53.207031 72.46875 -53.03125 72.46875 -53.03125 C 70.1875 -51.0625 69.046875 -48.570312 69.046875 -45.5625 L 69.046875 -14.609375 C 69.359375 -12.847656 70.1875 -11.296875 71.53125 -9.953125 C 71.53125 -9.953125 71.609375 -9.847656 71.765625 -9.640625 C 71.921875 -9.429688 71.945312 -9.117188 71.84375 -8.703125 C 71.738281 -8.597656 71.609375 -8.492188 71.453125 -8.390625 C 71.296875 -8.285156 71.21875 -8.234375 71.21875 -8.234375 C 68.9375 -7.929688 66.96875 -7.050781 65.3125 -5.59375 C 63.65625 -4.144531 62.722656 -2.4375 62.515625 -0.46875 C 62.410156 -0.46875 62.253906 -0.363281 62.046875 -0.15625 C 61.835938 0.0507812 61.785156 0.101562 61.890625 0 L 8.390625 0 C 8.390625 0 8.335938 0 8.234375 0 C 8.140625 0 8.039062 -0.0507812 7.9375 -0.15625 C 7.832031 -0.257812 7.78125 -0.335938 7.78125 -0.390625 C 7.78125 -0.441406 7.78125 -0.46875 7.78125 -0.46875 C 7.675781 -2.4375 6.789062 -4.144531 5.125 -5.59375 C 3.46875 -7.050781 1.445312 -7.929688 -0.9375 -8.234375 C -0.9375 -8.234375 -1.015625 -8.285156 -1.171875 -8.390625 C -1.328125 -8.492188 -1.457031 -8.597656 -1.5625 -8.703125 C -1.65625 -9.117188 -1.648438 -9.429688 -1.546875 -9.640625 C -1.453125 -9.847656 -1.40625 -9.953125 -1.40625 -9.953125 C 0.0507812 -11.398438 0.78125 -13.160156 0.78125 -15.234375 L 0.78125 -106.046875 C 0.78125 -108.117188 0.0507812 -109.882812 -1.40625 -111.34375 C -1.40625 -111.34375 -1.453125 -111.441406 -1.546875 -111.640625 C -1.648438 -111.847656 -1.65625 -112.160156 -1.5625 -112.578125 C -1.457031 -112.785156 -1.328125 -112.914062 -1.171875 -112.96875 C -1.015625 -113.019531 -0.9375 -113.046875 -0.9375 -113.046875 C 1.445312 -113.359375 3.46875 -114.265625 5.125 -115.765625 C 6.789062 -117.273438 7.675781 -118.960938 7.78125 -120.828125 C 7.78125 -120.828125 7.78125 -120.878906 7.78125 -120.984375 C 7.78125 -121.085938 7.832031 -121.191406 7.9375 -121.296875 L 62.046875 -121.296875 C 62.148438 -121.191406 62.203125 -121.085938 62.203125 -120.984375 C 62.203125 -120.878906 62.203125 -120.828125 62.203125 -120.828125 C 62.410156 -118.960938 63.34375 -117.273438 65 -115.765625 C 66.65625 -114.265625 68.625 -113.359375 70.90625 -113.046875 C 70.90625 -113.046875 70.984375 -113.019531 71.140625 -112.96875 C 71.296875 -112.914062 71.425781 -112.785156 71.53125 -112.578125 C 71.632812 -112.160156 71.632812 -111.847656 71.53125 -111.640625 C 71.425781 -111.441406 71.375 -111.34375 71.375 -111.34375 C 69.820312 -109.78125 69.046875 -107.804688 69.046875 -105.421875 L 69.046875 -76.5 L 43.84375 -91.75 L 43.84375 -102.78125 C 43.84375 -103.820312 42.988281 -105.117188 41.28125 -106.671875 C 39.570312 -108.222656 37.523438 -109 35.140625 -109 C 32.753906 -109 30.734375 -108.222656 29.078125 -106.671875 C 27.421875 -105.117188 26.59375 -103.769531 26.59375 -102.625 L 26.59375 -19.28125 C 26.59375 -18.25 27.421875 -16.925781 29.078125 -15.3125 C 30.734375 -13.707031 32.753906 -12.90625 35.140625 -12.90625 C 37.523438 -12.90625 39.597656 -13.707031 41.359375 -15.3125 C 43.117188 -16.925781 44 -18.25 44 -19.28125 L 44 -44 L 29.859375 -44 L 44 -63.4375 L 64.21875 -63.4375 L 64.53125 -62.828125 C 64.53125 -62.515625 64.425781 -62.253906 64.21875 -62.046875 C 63.5 -60.078125 63.890625 -58.441406 65.390625 -57.140625 C 66.890625 -55.847656 68.882812 -55.203125 71.375 -55.203125 Z M 72 -55.203125 "/></g></g></g><g fill="#808080" fill-opacity="1"><g transform="translate(422.437773, 738.334711)"><g><path d="M 73.703125 -12.75 L 73.703125 -5.4375 L 77.59375 -1.40625 L 77.59375 0 L 0 0 L 0 -1.40625 L 4.203125 -5.4375 L 4.203125 -12.75 L 8.234375 -12.75 L 8.234375 -108.84375 L 4.203125 -109 L 4.203125 -115.84375 L 0 -119.890625 L 0 -121.296875 L 42.765625 -121.296875 L 42.765625 -119.890625 L 38.5625 -115.84375 L 38.5625 -109 L 34.515625 -109 L 34.828125 -16.015625 C 35.035156 -15.179688 35.476562 -14.347656 36.15625 -13.515625 C 36.832031 -12.691406 37.789062 -12.28125 39.03125 -12.28125 C 40.375 -12.28125 41.4375 -12.71875 42.21875 -13.59375 C 43 -14.476562 43.441406 -15.335938 43.546875 -16.171875 L 43.546875 -32.8125 L 69.359375 -48.828125 L 69.359375 -12.75 Z M 73.703125 -12.75 "/></g></g></g><g fill="#808080" fill-opacity="1"><g transform="translate(503.145639, 738.334711)"><g><path d="M 8.234375 -12.75 L 8.234375 -109 L 4.359375 -108.84375 L 4.359375 -115.84375 L 0 -120.046875 L 0 -121.453125 L 77.4375 -121.296875 L 77.4375 -120.046875 L 73.234375 -115.84375 L 73.234375 -108.84375 L 69.203125 -108.84375 L 69.203125 -77.28125 L 41.515625 -93.140625 L 41.515625 -104.8125 C 41.515625 -104.8125 41.488281 -105.171875 41.4375 -105.890625 C 41.382812 -106.617188 41.125 -107.316406 40.65625 -107.984375 C 40.195312 -108.660156 39.34375 -109 38.09375 -109 C 36.851562 -109 35.972656 -108.609375 35.453125 -107.828125 C 34.929688 -107.054688 34.644531 -106.28125 34.59375 -105.5 C 34.539062 -104.726562 34.515625 -104.34375 34.515625 -104.34375 L 34.671875 -76.046875 L 50.6875 -76.046875 L 55.359375 -53.34375 L 34.671875 -53.34375 L 34.671875 -16.640625 C 34.671875 -16.640625 34.695312 -16.328125 34.75 -15.703125 C 34.800781 -15.078125 35.035156 -14.425781 35.453125 -13.75 C 35.867188 -13.082031 36.644531 -12.75 37.78125 -12.75 C 39.132812 -12.75 40.066406 -13.082031 40.578125 -13.75 C 41.097656 -14.425781 41.382812 -15.078125 41.4375 -15.703125 C 41.488281 -16.328125 41.515625 -16.640625 41.515625 -16.640625 L 41.515625 -32.65625 L 69.203125 -48.984375 L 69.203125 -12.75 L 73.234375 -12.75 L 73.234375 -5.4375 L 77.4375 -1.40625 L 77.4375 0 L 0 0 L 0 -1.40625 L 4.359375 -5.4375 L 4.359375 -12.75 Z M 8.234375 -12.75 "/></g></g></g><g fill="#808080" fill-opacity="1"><g transform="translate(585.253046, 738.334711)"><g><path d="M 64.0625 -60.484375 L 64.53125 -60.328125 L 65.9375 -58.78125 L 65.9375 -58 L 65.78125 -57.6875 C 64.738281 -56.65625 64.007812 -55.28125 63.59375 -53.5625 C 63.1875 -51.851562 62.878906 -50.015625 62.671875 -48.046875 L 62.359375 -17.578125 C 62.253906 -16.222656 62.507812 -14.894531 63.125 -13.59375 C 63.75 -12.300781 64.582031 -11.191406 65.625 -10.265625 L 65.78125 -9.953125 L 65.78125 -8.546875 L 65.15625 -8.09375 C 62.351562 -8.394531 60.070312 -7.875 58.3125 -6.53125 C 56.550781 -5.1875 55.671875 -3.476562 55.671875 -1.40625 L 55.671875 -0.46875 L 55.203125 0 L 10.734375 0 L 10.109375 -0.46875 C 9.796875 -2.332031 8.8125 -3.960938 7.15625 -5.359375 C 5.5 -6.765625 3.53125 -7.570312 1.25 -7.78125 L 0.625 -7.78125 L 0 -8.390625 L 0 -9.640625 L 0.15625 -9.953125 C 1.1875 -10.679688 1.832031 -11.640625 2.09375 -12.828125 C 2.351562 -14.015625 2.484375 -15.285156 2.484375 -16.640625 L 2.484375 -50.53125 L 29.234375 -32.96875 L 29.234375 -16.953125 C 29.234375 -16.535156 29.363281 -16.015625 29.625 -15.390625 C 29.882812 -14.773438 30.222656 -14.257812 30.640625 -13.84375 C 31.773438 -12.800781 33.09375 -12.71875 34.59375 -13.59375 C 36.101562 -14.476562 36.859375 -15.546875 36.859375 -16.796875 L 36.859375 -47.734375 C 36.859375 -47.734375 35.972656 -48.351562 34.203125 -49.59375 C 32.441406 -50.84375 30.1875 -52.453125 27.4375 -54.421875 C 24.695312 -56.390625 21.875 -58.382812 18.96875 -60.40625 C 16.0625 -62.425781 13.441406 -64.238281 11.109375 -65.84375 C 8.785156 -67.457031 7.15625 -68.578125 6.21875 -69.203125 C 5.488281 -69.503906 4.734375 -69.757812 3.953125 -69.96875 C 3.179688 -70.175781 2.484375 -70.28125 1.859375 -70.28125 C 1.753906 -70.28125 1.601562 -70.332031 1.40625 -70.4375 L 0.15625 -71.84375 C 0.0507812 -71.84375 0 -71.945312 0 -72.15625 L 0 -72.625 L 0.15625 -72.921875 C 1.601562 -74.691406 2.351562 -77.101562 2.40625 -80.15625 C 2.457031 -83.21875 2.585938 -86.300781 2.796875 -89.40625 L 2.796875 -103.25 C 2.796875 -104.695312 2.664062 -106.039062 2.40625 -107.28125 C 2.144531 -108.53125 1.445312 -109.570312 0.3125 -110.40625 C 0.101562 -110.507812 0 -110.972656 0 -111.796875 C 0.101562 -112.316406 0.363281 -112.550781 0.78125 -112.5 C 1.195312 -112.445312 1.40625 -112.421875 1.40625 -112.421875 C 3.882812 -112.210938 6.054688 -112.859375 7.921875 -114.359375 C 9.796875 -115.867188 10.734375 -117.660156 10.734375 -119.734375 C 10.734375 -119.941406 10.679688 -120.148438 10.578125 -120.359375 C 10.578125 -120.566406 10.679688 -120.773438 10.890625 -120.984375 C 10.992188 -121.085938 11.195312 -121.140625 11.5 -121.140625 L 55.203125 -121.296875 L 55.828125 -120.828125 C 56.140625 -118.859375 57.125 -117.195312 58.78125 -115.84375 C 60.4375 -114.5 62.40625 -113.722656 64.6875 -113.515625 L 64.84375 -113.515625 L 65.46875 -112.890625 L 65.625 -110.71875 L 65.46875 -110.40625 C 63.707031 -108.957031 62.828125 -106.882812 62.828125 -104.1875 L 62.828125 -77.125 L 37.171875 -93.453125 L 37.171875 -105.734375 C 37.066406 -106.253906 36.675781 -106.925781 36 -107.75 C 35.320312 -108.582031 34.3125 -109 32.96875 -109 C 31.414062 -109 30.300781 -108.554688 29.625 -107.671875 C 28.945312 -106.796875 28.609375 -105.945312 28.609375 -105.125 L 28.609375 -83.96875 C 28.609375 -83.96875 29.644531 -83.191406 31.71875 -81.640625 C 33.789062 -80.085938 36.351562 -78.195312 39.40625 -75.96875 C 42.46875 -73.738281 45.554688 -71.507812 48.671875 -69.28125 C 51.785156 -67.050781 54.40625 -65.179688 56.53125 -63.671875 C 58.65625 -62.171875 59.769531 -61.367188 59.875 -61.265625 C 61.425781 -60.742188 62.820312 -60.484375 64.0625 -60.484375 Z M 64.0625 -60.484375 "/></g></g></g><path stroke-linecap="butt" transform="matrix(1.292017, 0, 0, 1.292017, 161.001062, 576.420033)" fill="none" stroke-linejoin="miter" d="M 6.375471 110.127782 L 6.375471 35.634898 L 3.379309 35.752809 L 3.379309 30.316785 L -0.000822148 27.084799 L -0.000822148 25.999409 L 59.943592 26.114297 L 59.943592 27.084799 L 56.684396 30.316785 L 56.684396 35.752809 L 53.567298 35.752809 L 53.567298 60.172592 L 32.146702 47.918862 L 32.146702 38.869907 C 32.146702 38.869907 32.128561 38.59478 32.089257 38.044526 C 32.049954 37.479155 31.844364 36.937972 31.472489 36.430045 C 31.118755 35.900955 30.462683 35.634898 29.50125 35.634898 C 28.521677 35.634898 27.826302 35.940259 27.415123 36.547957 C 27.025108 37.134491 26.807425 37.733119 26.768121 38.340817 C 26.731841 38.948515 26.710677 39.250852 26.710677 39.250852 L 26.828589 61.143095 L 39.227441 61.143095 L 42.843395 78.714938 L 26.828589 78.714938 L 26.828589 107.128596 C 26.828589 107.128596 26.846729 107.373489 26.886033 107.863276 C 26.9465 108.334922 27.130926 108.833778 27.445357 109.362869 C 27.759788 109.870795 28.355392 110.127782 29.238217 110.127782 C 30.296397 110.127782 31.022007 109.870795 31.412022 109.362869 C 31.823201 108.833778 32.049954 108.334922 32.089257 107.863276 C 32.128561 107.373489 32.146702 107.128596 32.146702 107.128596 L 32.146702 94.729744 L 53.567298 82.095069 L 53.567298 110.127782 L 56.684396 110.127782 L 56.684396 115.796606 L 59.943592 118.913704 L 59.943592 119.999094 L -0.000822148 119.999094 L -0.000822148 118.913704 L 3.379309 115.796606 L 3.379309 110.127782 Z M 130.841685 115.796606 L 134.073671 118.913704 L 134.073671 119.999094 L 103.867153 119.999094 L 103.867153 119.031615 L 107.24426 115.681718 L 107.24426 110.127782 L 110.125534 110.127782 L 106.509581 92.555939 C 105.629779 93.43574 104.807422 94.738814 104.042508 96.462137 C 103.277595 98.185459 102.591289 99.960179 101.983591 101.780249 C 101.397057 103.585203 100.916341 105.15131 100.544466 106.481594 C 100.193755 107.796761 100.015376 108.452833 100.015376 108.452833 C 99.85816 108.842849 99.576987 109.039368 99.162784 109.039368 C 98.694162 109.039368 98.458339 108.803545 98.458339 108.334922 C 98.379731 106.805095 97.920178 104.915487 97.076657 102.663074 C 96.23616 100.410662 95.304961 98.324534 94.286084 96.404693 C 93.288371 94.484851 92.42671 93.199917 91.7011 92.555939 L 88.469115 110.127782 L 91.583189 110.127782 L 91.583189 115.796606 L 94.96332 118.913704 L 94.96332 119.999094 L 63.550475 119.999094 L 63.550475 118.913704 L 66.927583 115.796606 L 66.927583 110.127782 L 69.926769 110.127782 L 84.502449 35.752809 L 81.358142 35.752809 L 81.358142 30.316785 L 78.123133 27.202711 L 78.123133 25.999409 L 119.410313 25.999409 L 119.410313 27.202711 L 116.148093 30.316785 L 116.148093 35.634898 L 113.151931 35.752809 L 127.815289 110.127782 L 130.841685 110.127782 Z M 99.162784 87.029213 C 99.419771 86.539427 99.897464 85.934752 100.604933 85.209143 C 101.327519 84.483533 102.074293 83.770017 102.836183 83.062548 C 103.601096 82.339962 104.18763 81.810872 104.598809 81.475277 L 99.162784 39.837386 L 94.373762 81.7111 C 95.002623 82.279495 95.873355 83.18953 96.988979 84.444229 C 98.125768 85.677766 98.851377 86.539427 99.162784 87.029213 Z M 192.802689 77.275812 L 193.301545 77.626524 C 193.458761 77.959095 193.479924 78.264455 193.362013 78.539582 C 193.244101 78.811686 193.183634 78.950761 193.183634 78.950761 C 191.421007 80.477564 190.541206 82.406476 190.541206 84.737497 L 190.541206 108.685633 C 190.774006 110.058244 191.411937 111.261547 192.448954 112.301587 C 192.448954 112.301587 192.509422 112.380195 192.627333 112.53741 C 192.745245 112.691602 192.763385 112.936495 192.684777 113.27209 C 192.60617 113.350697 192.509422 113.426282 192.39151 113.504889 C 192.273599 113.583497 192.216155 113.622801 192.216155 113.622801 C 190.453528 113.858624 188.923701 114.54493 187.629698 115.681718 C 186.356858 116.797343 185.643342 118.118556 185.486127 119.648383 C 185.389379 119.648383 185.259374 119.726991 185.105182 119.881183 C 184.947966 120.038398 184.908662 120.077702 184.98727 119.999094 L 143.582179 119.999094 C 143.582179 119.999094 143.542875 119.999094 143.46729 119.999094 C 143.388683 119.999094 143.310075 119.959791 143.231467 119.881183 C 143.15286 119.805599 143.113556 119.745131 143.113556 119.705827 C 143.113556 119.666523 143.113556 119.648383 143.113556 119.648383 C 143.034948 118.118556 142.348642 116.797343 141.057662 115.681718 C 139.781799 114.54493 138.215692 113.858624 136.353294 113.622801 C 136.353294 113.622801 136.29585 113.583497 136.177938 113.504889 C 136.060027 113.426282 135.963279 113.350697 135.884671 113.27209 C 135.806064 112.936495 135.806064 112.691602 135.884671 112.53741 C 135.963279 112.380195 136.002583 112.301587 136.002583 112.301587 C 137.118207 111.185962 137.677531 109.822421 137.677531 108.21701 L 137.677531 37.929638 C 137.677531 36.321204 137.118207 34.951616 136.002583 33.814827 C 136.002583 33.814827 135.963279 33.73622 135.884671 33.579004 C 135.806064 33.421789 135.806064 33.188989 135.884671 32.874559 C 135.963279 32.699203 136.060027 32.590361 136.177938 32.551058 C 136.29585 32.511754 136.353294 32.493614 136.353294 32.493614 C 138.215692 32.25779 139.781799 31.562415 141.057662 30.404463 C 142.348642 29.231394 143.034948 27.91925 143.113556 26.468031 C 143.113556 26.468031 143.113556 26.428728 143.113556 26.35012 C 143.113556 26.271512 143.15286 26.192904 143.231467 26.114297 L 185.105182 26.114297 C 185.183789 26.192904 185.223093 26.271512 185.223093 26.35012 C 185.223093 26.428728 185.223093 26.468031 185.223093 26.468031 C 185.398449 27.91925 186.124058 29.231394 187.396898 30.404463 C 188.687878 31.562415 190.217705 32.25779 191.980331 32.493614 C 191.980331 32.493614 192.037776 32.511754 192.155687 32.551058 C 192.273599 32.590361 192.37337 32.699203 192.448954 32.874559 C 192.527562 33.188989 192.527562 33.421789 192.448954 33.579004 C 192.37337 33.73622 192.334066 33.814827 192.334066 33.814827 C 191.13681 35.030223 190.541206 36.557027 190.541206 38.398261 L 190.541206 60.78936 L 171.028357 48.977042 L 171.028357 40.454154 C 171.028357 39.65296 170.363215 38.652224 169.029908 37.457992 C 167.717764 36.242596 166.142587 35.634898 164.298329 35.634898 C 162.438955 35.634898 160.860755 36.242596 159.569774 37.457992 C 158.293911 38.652224 157.659003 39.692264 157.659003 40.572066 L 157.659003 105.072703 C 157.659003 105.87692 158.293911 106.904866 159.569774 108.156543 C 160.860755 109.393102 162.438955 110.00987 164.298329 110.00987 C 166.142587 110.00987 167.738928 109.393102 169.090375 108.156543 C 170.459963 106.904866 171.146269 105.87692 171.146269 105.072703 L 171.146269 85.943822 L 160.186542 85.943822 L 171.146269 70.899519 L 186.80734 70.899519 L 187.043164 71.368142 C 187.043164 71.622105 186.964556 71.827695 186.80734 71.98491 C 186.238946 73.514737 186.535237 74.775483 187.690165 75.776219 C 188.866257 76.773933 190.414224 77.275812 192.334066 77.275812 Z M 254.092504 110.127782 L 254.092504 115.796606 L 257.091689 118.913704 L 257.091689 119.999094 L 197.029364 119.999094 L 197.029364 118.913704 L 200.291583 115.796606 L 200.291583 110.127782 L 203.405658 110.127782 L 203.405658 35.752809 L 200.291583 35.634898 L 200.291583 30.316785 L 197.029364 27.202711 L 197.029364 26.114297 L 230.114133 26.114297 L 230.114133 27.202711 L 226.882148 30.316785 L 226.882148 35.634898 L 223.73784 35.634898 L 224.003897 107.600242 C 224.161112 108.247244 224.493683 108.891222 225.00161 109.538224 C 225.5307 110.167086 226.277473 110.478493 227.235882 110.478493 C 228.272899 110.478493 229.09828 110.145922 229.702955 109.48078 C 230.310653 108.794475 230.655317 108.129333 230.733925 107.482331 L 230.733925 94.611832 L 250.715396 82.209957 L 250.715396 110.127782 Z M 265.871564 110.127782 L 265.871564 35.634898 L 262.875402 35.752809 L 262.875402 30.316785 L 259.495271 27.084799 L 259.495271 25.999409 L 319.439685 26.114297 L 319.439685 27.084799 L 316.177465 30.316785 L 316.177465 35.752809 L 313.063391 35.752809 L 313.063391 60.172592 L 291.642795 47.918862 L 291.642795 38.869907 C 291.642795 38.869907 291.621631 38.59478 291.582327 38.044526 C 291.543023 37.479155 291.337434 36.937972 290.965559 36.430045 C 290.614848 35.900955 289.955753 35.634898 288.997343 35.634898 C 288.017771 35.634898 287.322395 35.940259 286.911216 36.547957 C 286.518178 37.134491 286.303518 37.733119 286.264214 38.340817 C 286.22491 38.948515 286.20677 39.250852 286.20677 39.250852 L 286.324682 61.143095 L 298.723534 61.143095 L 302.336464 78.714938 L 286.324682 78.714938 L 286.324682 107.128596 C 286.324682 107.128596 286.342822 107.373489 286.382126 107.863276 C 286.43957 108.334922 286.627019 108.833778 286.94145 109.362869 C 287.252857 109.870795 287.851485 110.127782 288.731287 110.127782 C 289.789467 110.127782 290.515077 109.870795 290.908115 109.362869 C 291.319294 108.833778 291.543023 108.334922 291.582327 107.863276 C 291.621631 107.373489 291.642795 107.128596 291.642795 107.128596 L 291.642795 94.729744 L 313.063391 82.095069 L 313.063391 110.127782 L 316.177465 110.127782 L 316.177465 115.796606 L 319.439685 118.913704 L 319.439685 119.999094 L 259.495271 119.999094 L 259.495271 118.913704 L 262.875402 115.796606 L 262.875402 110.127782 Z M 372.645 73.191236 L 372.998735 73.306124 L 374.087149 74.51245 L 374.087149 75.098984 L 373.969238 75.334807 C 373.165021 76.139024 372.596626 77.206275 372.264055 78.539582 C 371.949625 79.869866 371.716825 81.290852 371.55961 82.799515 L 371.293553 106.393916 C 371.214945 107.433957 371.420534 108.461904 371.910321 109.48078 C 372.400107 110.478493 373.047109 111.340154 373.851326 112.065764 L 373.969238 112.301587 L 373.969238 113.386978 L 373.470381 113.740713 C 371.314716 113.504889 369.55209 113.906998 368.179479 114.947038 C 366.809891 115.984055 366.123585 117.305269 366.123585 118.913704 L 366.123585 119.648383 L 365.769851 119.999094 L 331.360844 119.999094 L 330.861987 119.648383 C 330.626164 118.197164 329.861251 116.933394 328.570271 115.857074 C 327.294407 114.759589 325.776674 114.133751 324.014048 113.976536 L 323.515191 113.976536 L 323.043545 113.504889 L 323.043545 112.53741 L 323.161457 112.301587 C 323.965674 111.733193 324.46453 110.989443 324.66105 110.067315 C 324.875709 109.148209 324.984551 108.168636 324.984551 107.128596 L 324.984551 80.888743 L 345.670468 94.493921 L 345.670468 106.895796 C 345.670468 107.207204 345.770239 107.609312 345.963735 108.099099 C 346.181418 108.570745 346.444451 108.96076 346.758882 109.275191 C 347.638683 110.076385 348.65756 110.145922 349.815512 109.48078 C 350.988581 108.794475 351.578138 107.972117 351.578138 107.010685 L 351.578138 83.062548 C 351.578138 83.062548 350.891833 82.584855 349.519221 81.623423 C 348.149633 80.64385 346.396077 79.401244 344.261576 77.89258 C 342.145215 76.362754 339.959316 74.814787 337.706904 73.24868 C 335.475654 71.682573 333.456041 70.279728 331.654111 69.046191 C 329.852181 67.794515 328.588411 66.92076 327.862802 66.430974 C 327.294407 66.195151 326.707873 66.001655 326.100175 65.84444 C 325.513641 65.687224 324.97548 65.608617 324.485694 65.608617 C 324.407086 65.608617 324.289175 65.569313 324.131959 65.490705 L 323.161457 64.405314 C 323.082849 64.405314 323.043545 64.314613 323.043545 64.139257 L 323.043545 63.785523 L 323.161457 63.552723 C 324.280105 62.180112 324.857569 60.320737 324.896873 57.968553 C 324.954317 55.598229 325.063158 53.209764 325.220374 50.800136 L 325.220374 40.073209 C 325.220374 38.957585 325.111532 37.917544 324.896873 36.959135 C 324.700354 35.997703 324.162193 35.196509 323.279368 34.549507 C 323.122153 34.470899 323.043545 34.108095 323.043545 33.461093 C 323.122153 33.071078 323.318672 32.892699 323.633103 32.932003 C 323.965674 32.971306 324.131959 32.99247 324.131959 32.99247 C 326.051801 33.149685 327.73582 32.647806 329.187039 31.492877 C 330.635234 30.316785 331.360844 28.926034 331.360844 27.320623 C 331.360844 27.163407 331.32154 27.006192 331.242932 26.848976 C 331.242932 26.694784 331.32154 26.528499 331.478755 26.35012 C 331.557363 26.271512 331.714579 26.232208 331.947378 26.232208 L 365.769851 26.114297 L 366.241497 26.468031 C 366.49546 27.994835 367.260373 29.288838 368.533213 30.347019 C 369.824194 31.384036 371.35402 31.982664 373.116647 32.139879 L 373.234558 32.139879 L 373.703181 32.608502 L 373.851326 34.313684 L 373.703181 34.549507 C 372.351733 35.665132 371.677521 37.273566 371.677521 39.368763 L 371.677521 60.290504 L 351.810938 47.655828 L 351.810938 38.162438 C 351.735354 37.751259 351.429993 37.234262 350.900903 36.605401 C 350.392976 35.958399 349.609923 35.634898 348.551742 35.634898 C 347.354486 35.634898 346.492825 35.979562 345.963735 36.665868 C 345.455808 37.33101 345.201845 37.987082 345.201845 38.634084 L 345.201845 54.999601 C 345.201845 54.999601 346.003039 55.607299 347.611473 56.822695 C 349.216884 58.016927 351.19417 59.477216 353.546354 61.200539 C 355.916678 62.923861 358.305143 64.650207 360.714771 66.37353 C 363.124399 68.096852 365.153082 69.545048 366.797797 70.72114 C 368.445536 71.876068 369.307197 72.49586 369.385804 72.574468 C 370.580037 72.985646 371.665428 73.191236 372.645 73.191236 Z M 372.645 73.191236 " stroke="#000000" stroke-width="4.513579" stroke-opacity="1" stroke-miterlimit="4"/></svg>